# xmcd
#
# Track frame offsets:
# 150
# 13773
# 31005
# 44600
# 64882
# 80358
# 93730
# 105889
# 120068
# 134359
# 148636
# 165464
# 179755
# 199969
# 213453
# 227479
#
# Disc length: 3191 seconds
#
#
# Revision: 1
# Processed by: cddbd v1.5.1PL0 Copyright (c) Steve Scherf et al.
# Submitted via: FreeRIP 2.90 
#
DISCID=d60c7510
DTITLE=Daniel - Meu Reino Encantado II
DYEAR=2003
DGENRE=Folk
TTITLE0=Encanto da Natureza
TTITLE1=Mundo Velho
TTITLE2=Paixao Dupla
TTITLE3=Pout-Pourri de Pagodes
TTITLE4=Rolinha Cabloca
TTITLE5=Versos Ao Peh Do Homem
TTITLE6=Moradia
TTITLE7=Cobra Venenosa
TTITLE8=Pra Tudo Se Dah Um Jeito
TTITLE9=Cabelo Loiro
TTITLE10=Consagracao
TTITLE11=Viuva Rica
TTITLE12=Travessia Do Araguaia
TTITLE13=Tudo Eh Beleza
TTITLE14=Minha Vida
TTITLE15=Minas Gerais
EXTD=
EXTT0=
EXTT1=
EXTT2=
EXTT3=
EXTT4=
EXTT5=
EXTT6=
EXTT7=
EXTT8=
EXTT9=
EXTT10=
EXTT11=
EXTT12=
EXTT13=
EXTT14=
EXTT15=
PLAYORDER=
